<?xml version="1.0" encoding="UTF-8" standalone="yes"?><svg xmlns="http://www.w3.org/2000/svg" xmlns:xlink="http://www.w3.org/1999/xlink" height="173px" style="width:412px;height:173px;" version="1.1" viewBox="0 0 412 173" width="412px"><defs><filter height="300%" id="f1" width="300%" x="-1" y="-1"><feGaussianBlur result="blurOut" stdDeviation="2.0"/><feColorMatrix in="blurOut" result="blurOut2" type="matrix" values="0 0 0 0 0 0 0 0 0 0 0 0 0 0 0 0 0 0 .4 0"/><feOffset dx="4.0" dy="4.0" in="blurOut2" result="blurOut3"/><feBlend in="SourceGraphic" in2="blurOut3" mode="normal"/></filter></defs><g><rect fill="#E6E6E6" filter="url(#f1)" height="48" style="stroke: #808080; stroke-width: 1.5;" width="59" x="35" y="8"/><ellipse cx="50" cy="24" fill="#FFFF00" rx="11" ry="11" style="stroke: #808080; stroke-width: 1.0;"/><path d="M52.9688,29.6406 Q52.3906,29.9375 51.75,30.0859 Q51.1094,30.2344 50.4063,30.2344 Q47.9063,30.2344 46.5859,28.5859 Q45.2656,26.9375 45.2656,23.8125 Q45.2656,20.6875 46.5859,19.0313 Q47.9063,17.375 50.4063,17.375 Q51.1094,17.375 51.7578,17.5313 Q52.4063,17.6875 52.9688,17.9844 L52.9688,20.7031 Q52.3438,20.125 51.75,19.8516 Q51.1563,19.5781 50.5313,19.5781 Q49.1875,19.5781 48.5,20.6484 Q47.8125,21.7188 47.8125,23.8125 Q47.8125,25.9063 48.5,26.9766 Q49.1875,28.0469 50.5313,28.0469 Q51.1563,28.0469 51.75,27.7734 Q52.3438,27.5 52.9688,26.9219 L52.9688,29.6406 Z "/><text fill="#0047B3" font-family="sans-serif" font-size="12" lengthAdjust="spacingAndGlyphs" textLength="27" x="64" y="28.1543">Pilot</text><line style="stroke: #808080; stroke-width: 1.5;" x1="36" x2="93" y1="40" y2="40"/><line style="stroke: #808080; stroke-width: 1.5;" x1="36" x2="93" y1="48" y2="48"/><rect fill="#E6E6E6" filter="url(#f1)" height="48" style="stroke: #808080; stroke-width: 1.5;" width="78" x="129.5" y="8"/><ellipse cx="144.5" cy="24" fill="#FFFF00" rx="11" ry="11" style="stroke: #808080; stroke-width: 1.0;"/><path d="M147.4688,29.6406 Q146.8906,29.9375 146.25,30.0859 Q145.6094,30.2344 144.9063,30.2344 Q142.4063,30.2344 141.0859,28.5859 Q139.7656,26.9375 139.7656,23.8125 Q139.7656,20.6875 141.0859,19.0313 Q142.4063,17.375 144.9063,17.375 Q145.6094,17.375 146.2578,17.5313 Q146.9063,17.6875 147.4688,17.9844 L147.4688,20.7031 Q146.8438,20.125 146.25,19.8516 Q145.6563,19.5781 145.0313,19.5781 Q143.6875,19.5781 143,20.6484 Q142.3125,21.7188 142.3125,23.8125 Q142.3125,25.9063 143,26.9766 Q143.6875,28.0469 145.0313,28.0469 Q145.6563,28.0469 146.25,27.7734 Q146.8438,27.5 147.4688,26.9219 L147.4688,29.6406 Z "/><text fill="#0047B3" font-family="sans-serif" font-size="12" lengthAdjust="spacingAndGlyphs" textLength="46" x="158.5" y="28.1543">Mesure</text><line style="stroke: #808080; stroke-width: 1.5;" x1="130.5" x2="206.5" y1="40" y2="40"/><line style="stroke: #808080; stroke-width: 1.5;" x1="130.5" x2="206.5" y1="48" y2="48"/><rect fill="#E6E6E6" filter="url(#f1)" height="48" style="stroke: #808080; stroke-width: 1.5;" width="88" x="242.5" y="8"/><ellipse cx="257.5" cy="24" fill="#FFFF00" rx="11" ry="11" style="stroke: #808080; stroke-width: 1.0;"/><path d="M260.4688,29.6406 Q259.8906,29.9375 259.25,30.0859 Q258.6094,30.2344 257.9063,30.2344 Q255.4063,30.2344 254.0859,28.5859 Q252.7656,26.9375 252.7656,23.8125 Q252.7656,20.6875 254.0859,19.0313 Q255.4063,17.375 257.9063,17.375 Q258.6094,17.375 259.2578,17.5313 Q259.9063,17.6875 260.4688,17.9844 L260.4688,20.7031 Q259.8438,20.125 259.25,19.8516 Q258.6563,19.5781 258.0313,19.5781 Q256.6875,19.5781 256,20.6484 Q255.3125,21.7188 255.3125,23.8125 Q255.3125,25.9063 256,26.9766 Q256.6875,28.0469 258.0313,28.0469 Q258.6563,28.0469 259.25,27.7734 Q259.8438,27.5 260.4688,26.9219 L260.4688,29.6406 Z "/><text fill="#0047B3" font-family="sans-serif" font-size="12" lengthAdjust="spacingAndGlyphs" textLength="56" x="271.5" y="28.1543">Historian</text><line style="stroke: #808080; stroke-width: 1.5;" x1="243.5" x2="329.5" y1="40" y2="40"/><line style="stroke: #808080; stroke-width: 1.5;" x1="243.5" x2="329.5" y1="48" y2="48"/><rect fill="#E6E6E6" filter="url(#f1)" height="48" style="stroke: #808080; stroke-width: 1.5;" width="117" x="6" y="116"/><ellipse cx="21" cy="132" fill="#FFFF00" rx="11" ry="11" style="stroke: #808080; stroke-width: 1.0;"/><path d="M23.9688,137.6406 Q23.3906,137.9375 22.75,138.0859 Q22.1094,138.2344 21.4063,138.2344 Q18.9063,138.2344 17.5859,136.5859 Q16.2656,134.9375 16.2656,131.8125 Q16.2656,128.6875 17.5859,127.0313 Q18.9063,125.375 21.4063,125.375 Q22.1094,125.375 22.7578,125.5313 Q23.4063,125.6875 23.9688,125.9844 L23.9688,128.7031 Q23.3438,128.125 22.75,127.8516 Q22.1563,127.5781 21.5313,127.5781 Q20.1875,127.5781 19.5,128.6484 Q18.8125,129.7188 18.8125,131.8125 Q18.8125,133.9063 19.5,134.9766 Q20.1875,136.0469 21.5313,136.0469 Q22.1563,136.0469 22.75,135.7734 Q23.3438,135.5 23.9688,134.9219 L23.9688,137.6406 Z "/><text fill="#0047B3" font-family="sans-serif" font-size="12" lengthAdjust="spacingAndGlyphs" textLength="85" x="35" y="136.1543">Communicate</text><line style="stroke: #808080; stroke-width: 1.5;" x1="7" x2="122" y1="148" y2="148"/><line style="stroke: #808080; stroke-width: 1.5;" x1="7" x2="122" y1="156" y2="156"/><rect fill="#E6E6E6" filter="url(#f1)" height="48" style="stroke: #808080; stroke-width: 1.5;" width="117" x="158" y="116"/><ellipse cx="173" cy="132" fill="#FFFF00" rx="11" ry="11" style="stroke: #808080; stroke-width: 1.0;"/><path d="M175.9688,137.6406 Q175.3906,137.9375 174.75,138.0859 Q174.1094,138.2344 173.4063,138.2344 Q170.9063,138.2344 169.5859,136.5859 Q168.2656,134.9375 168.2656,131.8125 Q168.2656,128.6875 169.5859,127.0313 Q170.9063,125.375 173.4063,125.375 Q174.1094,125.375 174.7578,125.5313 Q175.4063,125.6875 175.9688,125.9844 L175.9688,128.7031 Q175.3438,128.125 174.75,127.8516 Q174.1563,127.5781 173.5313,127.5781 Q172.1875,127.5781 171.5,128.6484 Q170.8125,129.7188 170.8125,131.8125 Q170.8125,133.9063 171.5,134.9766 Q172.1875,136.0469 173.5313,136.0469 Q174.1563,136.0469 174.75,135.7734 Q175.3438,135.5 175.9688,134.9219 L175.9688,137.6406 Z "/><text fill="#0047B3" font-family="sans-serif" font-size="12" lengthAdjust="spacingAndGlyphs" textLength="85" x="187" y="136.1543">UserInterface</text><line style="stroke: #808080; stroke-width: 1.5;" x1="159" x2="274" y1="148" y2="148"/><line style="stroke: #808080; stroke-width: 1.5;" x1="159" x2="274" y1="156" y2="156"/><rect fill="#E6E6E6" filter="url(#f1)" height="48" style="stroke: #808080; stroke-width: 1.5;" width="93" x="310" y="116"/><ellipse cx="325" cy="132" fill="#FFFF00" rx="11" ry="11" style="stroke: #808080; stroke-width: 1.0;"/><path d="M327.9688,137.6406 Q327.3906,137.9375 326.75,138.0859 Q326.1094,138.2344 325.4063,138.2344 Q322.9063,138.2344 321.5859,136.5859 Q320.2656,134.9375 320.2656,131.8125 Q320.2656,128.6875 321.5859,127.0313 Q322.9063,125.375 325.4063,125.375 Q326.1094,125.375 326.7578,125.5313 Q327.4063,125.6875 327.9688,125.9844 L327.9688,128.7031 Q327.3438,128.125 326.75,127.8516 Q326.1563,127.5781 325.5313,127.5781 Q324.1875,127.5781 323.5,128.6484 Q322.8125,129.7188 322.8125,131.8125 Q322.8125,133.9063 323.5,134.9766 Q324.1875,136.0469 325.5313,136.0469 Q326.1563,136.0469 326.75,135.7734 Q327.3438,135.5 327.9688,134.9219 L327.9688,137.6406 Z "/><text fill="#0047B3" font-family="sans-serif" font-size="12" lengthAdjust="spacingAndGlyphs" textLength="61" x="339" y="136.1543">Controller</text><line style="stroke: #808080; stroke-width: 1.5;" x1="311" x2="402" y1="148" y2="148"/><line style="stroke: #808080; stroke-width: 1.5;" x1="311" x2="402" y1="156" y2="156"/></g></svg>